<svg version="1.1" id="speech_bubble" xmlns="http://www.w3.org/2000/svg" xmlns:xlink="http://www.w3.org/1999/xlink" x="0px" y="0px" width="24px" height="20px" viewBox="-49.833 6.167 24 20" enable-background="new -49.833 6.167 24 20" xml:space="preserve"><g><path d="M-30.561,8.985c0.502,0,0.909,0.407,0.909,0.909v8c0,0.5-0.407,0.909-0.909,0.909h-7.272h-0.582l-0.475,0.338l-3.489,2.492v-1.013v-1.817h-1.817h-0.909c-0.502,0-0.909-0.409-0.909-0.909v-8c0-0.502,0.407-0.909,0.909-0.909H-30.561 M-30.561,7.167h-14.545c-1.506,0-2.728,1.221-2.728,2.728v8c0,1.506,1.221,2.727,2.728,2.727h0.909v4.546l6.363-4.546h7.272c1.506,0,2.728-1.221,2.728-2.727v-8C-27.833,8.388-29.055,7.167-30.561,7.167L-30.561,7.167z"/></g></svg>